<svg width="80" height="80" viewBox="0 0 80 80" fill="none" xmlns="http://www.w3.org/2000/svg">
<rect width="80" height="80" rx="40" fill="#090F29"/>
<path d="M61.477 39.6365C61.477 36.7919 57.9149 34.096 52.4536 32.4242C53.7139 26.8575 53.1538 22.4286 50.6857 21.0106C50.1168 20.678 49.4516 20.5205 48.7252 20.5205V22.4723C49.1278 22.4723 49.4516 22.5511 49.7229 22.6999C50.9132 23.3826 51.4296 25.9822 51.027 29.3258C50.9307 30.1485 50.7732 31.015 50.5806 31.8991C48.8652 31.4789 46.9923 31.1551 45.023 30.945C43.8415 29.3258 42.6162 27.8553 41.3821 26.5686C44.2353 23.9165 46.9135 22.4636 48.7339 22.4636V20.5117C46.3271 20.5117 43.1763 22.2273 39.9905 25.2032C36.8048 22.2448 33.654 20.5467 31.2472 20.5467V22.4986C33.0589 22.4986 35.7458 23.9428 38.599 26.5774C37.3737 27.864 36.1484 29.3258 34.9843 30.945C33.0063 31.1551 31.1334 31.4789 29.418 31.9078C29.2167 31.0326 29.0679 30.1835 28.9629 29.3695C28.5515 26.026 29.0591 23.4264 30.2407 22.7349C30.5032 22.5774 30.8446 22.5074 31.2472 22.5074V20.5555C30.512 20.5555 29.8468 20.713 29.2692 21.0456C26.8098 22.4636 26.2584 26.8837 27.5275 32.433C22.0837 34.1135 18.5391 36.8006 18.5391 39.6365C18.5391 42.4812 22.1012 45.177 27.5625 46.8488C26.3022 52.4156 26.8623 56.8445 29.3304 58.2624C29.8993 58.595 30.5645 58.7526 31.2997 58.7526C33.7065 58.7526 36.8573 57.037 40.0431 54.0611C43.2288 57.0195 46.3796 58.7176 48.7864 58.7176C49.5216 58.7176 50.1868 58.56 50.7644 58.2274C53.2238 56.8095 53.7752 52.3893 52.5061 46.8401C57.9324 45.1683 61.477 42.4724 61.477 39.6365ZM50.0818 33.7984C49.7579 34.9275 49.3553 36.0917 48.9002 37.2558C48.5414 36.5556 48.165 35.8553 47.7537 35.1551C47.3511 34.4549 46.9222 33.7722 46.4934 33.107C47.7362 33.2908 48.9352 33.5183 50.0818 33.7984ZM46.0733 43.1201C45.3906 44.3018 44.6904 45.4221 43.964 46.4637C42.6599 46.5775 41.3384 46.6387 40.0081 46.6387C38.6865 46.6387 37.3649 46.5775 36.0696 46.4724C35.3432 45.4309 34.6342 44.3193 33.9516 43.1464C33.2864 41.9998 32.6825 40.8357 32.1311 39.6628C32.6738 38.4899 33.2864 37.317 33.9428 36.1704C34.6255 34.9888 35.3257 33.8685 36.0521 32.8269C37.3562 32.7131 38.6777 32.6518 40.0081 32.6518C41.3296 32.6518 42.6512 32.7131 43.9465 32.8181C44.6729 33.8597 45.3819 34.9713 46.0645 36.1442C46.7297 37.2908 47.3336 38.4549 47.885 39.6278C47.3336 40.8006 46.7297 41.9735 46.0733 43.1201ZM48.9002 41.9823C49.3728 43.1551 49.7754 44.328 50.108 45.4659C48.9615 45.746 47.7537 45.9823 46.5021 46.1661C46.931 45.4921 47.3598 44.8007 47.7624 44.0917C48.165 43.3915 48.5414 42.6825 48.9002 41.9823ZM40.0256 51.3215C39.2116 50.4812 38.3977 49.5447 37.5925 48.5206C38.3802 48.5556 39.1853 48.5819 39.9993 48.5819C40.822 48.5819 41.6359 48.5644 42.4324 48.5206C41.6447 49.5447 40.8308 50.4812 40.0256 51.3215ZM33.514 46.1661C32.2712 45.9823 31.0721 45.7547 29.9256 45.4746C30.2494 44.3455 30.652 43.1814 31.1071 42.0173C31.466 42.7175 31.8423 43.4177 32.2537 44.118C32.665 44.8182 33.0851 45.5009 33.514 46.1661ZM39.9818 27.9516C40.7957 28.7918 41.6097 29.7284 42.4149 30.7525C41.6272 30.7175 40.822 30.6912 40.0081 30.6912C39.1853 30.6912 38.3714 30.7087 37.575 30.7525C38.3627 29.7284 39.1766 28.7918 39.9818 27.9516ZM33.5052 33.107C33.0764 33.7809 32.6475 34.4724 32.2449 35.1814C31.8423 35.8816 31.466 36.5818 31.1071 37.282C30.6345 36.1092 30.2319 34.9363 29.8993 33.7984C31.0459 33.5271 32.2537 33.2908 33.5052 33.107ZM25.5845 44.0654C22.4863 42.7438 20.482 41.0107 20.482 39.6365C20.482 38.2623 22.4863 36.5205 25.5845 35.2076C26.3372 34.8838 27.1599 34.5949 28.0089 34.3236C28.5077 36.0391 29.1642 37.8247 29.9781 39.654C29.1729 41.4746 28.5253 43.2514 28.0351 44.9582C27.1687 44.6869 26.346 44.3893 25.5845 44.0654ZM30.2932 56.5731C29.1029 55.8904 28.5865 53.2909 28.9891 49.9473C29.0854 49.1245 29.2429 48.258 29.4355 47.374C31.1509 47.7941 33.0238 48.118 34.9931 48.328C36.1746 49.9473 37.3999 51.4178 38.634 52.7044C35.7808 55.3565 33.1026 56.8095 31.2822 56.8095C30.8883 56.8007 30.5557 56.7219 30.2932 56.5731ZM51.0532 49.9035C51.4646 53.2471 50.957 55.8467 49.7754 56.5381C49.5129 56.6957 49.1715 56.7657 48.7689 56.7657C46.9572 56.7657 44.2703 55.3215 41.4171 52.6869C42.6424 51.4003 43.8677 49.9385 45.0318 48.3193C47.0098 48.1092 48.8827 47.7854 50.5981 47.3565C50.7994 48.2405 50.957 49.0895 51.0532 49.9035ZM54.4228 44.0654C53.6701 44.3893 52.8474 44.6781 51.9985 44.9495C51.4996 43.2339 50.8432 41.4484 50.0292 39.619C50.8344 37.7984 51.4821 36.0216 51.9722 34.3148C52.8387 34.5862 53.6614 34.8838 54.4316 35.2076C57.5298 36.5293 59.5341 38.2623 59.5341 39.6365C59.5253 41.0107 57.5211 42.7525 54.4228 44.0654Z" fill="#F3F3F3"/>
<path d="M39.9997 43.6348C42.2087 43.6348 43.9994 41.8439 43.9994 39.6348C43.9994 37.4256 42.2087 35.6348 39.9997 35.6348C37.7907 35.6348 36 37.4256 36 39.6348C36 41.8439 37.7907 43.6348 39.9997 43.6348Z" fill="#F3F3F3"/>
</svg>
