<svg width="150" height="150" viewBox="0 0 150 150" fill="none" xmlns="http://www.w3.org/2000/svg">
<rect width="150" height="150" rx="75" fill="#7144F8"/>
<path d="M115.263 74.3192C115.263 68.9855 108.584 63.9308 98.3436 60.7962C100.707 50.3585 99.6564 42.0543 95.0288 39.3957C93.9621 38.772 92.7149 38.4766 91.3529 38.4766V42.1364C92.1077 42.1364 92.7149 42.2841 93.2236 42.5631C95.4554 43.8432 96.4236 48.7174 95.6688 54.9865C95.4882 56.5292 95.1929 58.1539 94.8318 59.8115C91.6154 59.0238 88.1036 58.4165 84.4113 58.0227C82.1959 54.9865 79.8985 52.2294 77.5847 49.8169C82.9344 44.8443 87.9559 42.12 91.3693 42.12V38.4602C86.8564 38.4602 80.9488 41.6769 74.9754 47.2567C69.0021 41.7097 63.0944 38.5259 58.5816 38.5259V42.1856C61.9785 42.1856 67.0165 44.8935 72.3662 49.8333C70.0688 52.2458 67.7713 54.9865 65.5888 58.0227C61.8801 58.4165 58.3683 59.0238 55.1518 59.8279C54.7744 58.1868 54.4954 56.5949 54.2985 55.0686C53.5272 48.7994 54.479 43.9252 56.6944 42.6287C57.1867 42.3333 57.8267 42.202 58.5816 42.202V38.5423C57.2031 38.5423 55.9559 38.8377 54.8729 39.4613C50.2616 42.12 49.2277 50.4077 51.6072 60.8126C41.4001 63.9636 34.7539 69.0019 34.7539 74.3192C34.7539 79.6529 41.4329 84.7077 51.6729 87.8423C49.3098 98.2799 50.3601 106.584 54.9877 109.243C56.0544 109.866 57.3016 110.162 58.6801 110.162C63.1929 110.162 69.1006 106.945 75.0739 101.365C81.0472 106.912 86.9549 110.096 91.4677 110.096C92.8462 110.096 94.0934 109.801 95.1764 109.177C99.7877 106.518 100.822 98.2307 98.4421 87.8258C108.616 84.6913 115.263 79.6365 115.263 74.3192ZM93.8964 63.3728C93.2893 65.4899 92.5344 67.6726 91.6811 69.8553C91.0082 68.5424 90.3026 67.2295 89.5313 65.9166C88.7764 64.6036 87.9723 63.3236 87.1682 62.0763C89.4985 62.4209 91.7467 62.8476 93.8964 63.3728ZM86.3805 80.851C85.1005 83.0665 83.7877 85.1672 82.4257 87.1202C79.9806 87.3335 77.5026 87.4484 75.0082 87.4484C72.5303 87.4484 70.0524 87.3335 67.6236 87.1366C66.2616 85.1836 64.9324 83.0994 63.6524 80.9002C62.4052 78.7503 61.2729 76.5676 60.239 74.3685C61.2565 72.1693 62.4052 69.9702 63.6359 67.8203C64.9159 65.6047 66.2288 63.5041 67.5908 61.5511C70.0359 61.3378 72.5139 61.2229 75.0082 61.2229C77.4862 61.2229 79.9641 61.3378 82.3929 61.5347C83.7549 63.4877 85.0841 65.5719 86.3641 67.7711C87.6113 69.921 88.7436 72.1037 89.7775 74.3028C88.7436 76.5019 87.6113 78.7011 86.3805 80.851ZM91.6811 78.7175C92.5672 80.9166 93.3221 83.1158 93.9457 85.2493C91.7959 85.7744 89.5313 86.2175 87.1847 86.5622C87.9888 85.2985 88.7929 84.002 89.5477 82.6727C90.3026 81.3597 91.0082 80.0304 91.6811 78.7175ZM75.0411 96.2285C73.5149 94.653 71.9888 92.897 70.479 90.9768C71.9559 91.0425 73.4657 91.0917 74.9918 91.0917C76.5344 91.0917 78.0606 91.0589 79.5539 90.9768C78.077 92.897 76.5508 94.653 75.0411 96.2285ZM62.8318 86.5622C60.5016 86.2175 58.2534 85.7908 56.1036 85.2657C56.7108 83.1486 57.4657 80.9659 58.319 78.7831C58.9918 80.0961 59.6975 81.409 60.4688 82.7219C61.24 84.0348 62.0277 85.3149 62.8318 86.5622ZM74.959 52.4099C76.4852 53.9854 78.0113 55.7415 79.5211 57.6616C78.0441 57.596 76.5344 57.5467 75.0082 57.5467C73.4657 57.5467 71.9395 57.5795 70.4462 57.6616C71.9231 55.7415 73.4493 53.9854 74.959 52.4099ZM62.8154 62.0763C62.0113 63.34 61.2072 64.6365 60.4524 65.9658C59.6975 67.2787 58.9918 68.5916 58.319 69.9045C57.4329 67.7054 56.678 65.5063 56.0544 63.3728C58.2042 62.864 60.4688 62.4209 62.8154 62.0763ZM47.9642 82.6234C42.1549 80.1453 38.397 76.8958 38.397 74.3192C38.397 71.7426 42.1549 68.4767 47.9642 66.015C49.3754 65.4078 50.918 64.8662 52.5098 64.3575C53.4452 67.5741 54.6759 70.9221 56.2021 74.352C54.6924 77.7656 53.478 81.0972 52.559 84.2974C50.9344 83.7886 49.3919 83.2306 47.9642 82.6234ZM56.7929 106.075C54.5611 104.795 53.5929 99.9211 54.3477 93.6519C54.5283 92.1092 54.8236 90.4845 55.1847 88.8269C58.4011 89.6147 61.9129 90.2219 65.6052 90.6158C67.8206 93.6519 70.118 96.409 72.4318 98.8215C67.0821 103.794 62.0606 106.518 58.6472 106.518C57.9088 106.502 57.2852 106.354 56.7929 106.075ZM95.718 93.5699C96.4893 99.839 95.5375 104.713 93.3221 106.01C92.8298 106.305 92.1898 106.436 91.4349 106.436C88.038 106.436 83 103.729 77.6503 98.7887C79.9477 96.3762 82.2452 93.6355 84.4277 90.5994C88.1364 90.2055 91.6482 89.5983 94.8646 88.7941C95.2421 90.4517 95.5375 92.0436 95.718 93.5699ZM102.036 82.6234C100.625 83.2306 99.0821 83.7722 97.4903 84.281C96.5549 81.0643 95.3241 77.7164 93.798 74.2864C95.3077 70.8728 96.5221 67.5413 97.4411 64.3411C99.0657 64.8498 100.608 65.4078 102.052 66.015C107.862 68.4932 111.62 71.7426 111.62 74.3192C111.603 76.8958 107.845 80.1617 102.036 82.6234Z" fill="white"/>
<path d="M74.9956 81.8182C79.1374 81.8182 82.4951 78.4603 82.4951 74.3181C82.4951 70.176 79.1374 66.8181 74.9956 66.8181C70.8537 66.8181 67.4961 70.176 67.4961 74.3181C67.4961 78.4603 70.8537 81.8182 74.9956 81.8182Z" fill="white"/>
</svg>
